<?xml version="1.0" encoding="utf-8"?>
<!-- Generator: Adobe Illustrator 19.2.0, SVG Export Plug-In . SVG Version: 6.00 Build 0)  -->
<svg version="1.1" id="Layer_1" xmlns="http://www.w3.org/2000/svg" xmlns:xlink="http://www.w3.org/1999/xlink" x="0px" y="0px"
	 viewBox="0 0 110.9 15.3" style="enable-background:new 0 0 110.9 15.3;" xml:space="preserve">
<style type="text/css">
	.st0{fill:#FFFFFF;}
</style>
<g>
	<g>
		<g>
			<path class="st0" d="M24.6,8.6h-2.9V10H25v1.8h-5.4v-8h5.2v1.8h-3v1.3h2.9V8.6z"/>
			<path class="st0" d="M25.6,3.4h2.1v8.4h-2.1V3.4z"/>
			<path class="st0" d="M30.4,9.6c0.1,0.5,0.7,0.7,1.5,0.7c0.5,0,1.1-0.1,1.6-0.2l0.3,1.4c-0.7,0.3-1.5,0.4-2.2,0.4
				c-2,0-3.2-1.1-3.2-3c0-1.3,0.9-3.1,3-3.1c1.9,0,2.7,1.4,2.7,3c0,0.3,0,0.7-0.1,0.8H30.4z M32.1,8.2c0-0.3-0.2-0.9-0.8-0.9
				c-0.6,0-0.9,0.6-0.9,0.9H32.1z"/>
			<path class="st0" d="M39,11.7c-0.3,0.2-0.9,0.2-1.6,0.2c-1.9,0-3.2-1.1-3.2-3c0-1.7,1.1-3.1,3.4-3.1c0.4,0,0.9,0.1,1.3,0.2
				l-0.3,1.6c-0.2-0.1-0.5-0.1-0.9-0.1c-0.8,0-1.4,0.5-1.3,1.4c0,0.9,0.7,1.4,1.4,1.4c0.4,0,0.7,0,0.9-0.2L39,11.7z"/>
			<path class="st0" d="M42,4.3V6h1.2v1.6H42v1.7c0,0.7,0.2,1,0.7,1c0.2,0,0.3,0,0.5,0v1.6c-0.2,0.1-0.7,0.2-1.3,0.2
				c-0.6,0-1.1-0.2-1.5-0.5c-0.4-0.4-0.5-0.9-0.5-1.8v-2h-0.7V6h0.7V4.9L42,4.3z"/>
			<path class="st0" d="M43.7,7.9c0-0.9,0-1.5,0-2h1.8L45.5,7h0c0.3-0.9,1-1.2,1.6-1.2c0.2,0,0.3,0,0.4,0v2c-0.2,0-0.3-0.1-0.5-0.1
				c-0.6,0-1.1,0.3-1.2,0.7c0,0.1,0,0.2,0,0.4v2.9h-2.1V7.9z"/>
			<path class="st0" d="M50.7,11.9c-1.7,0-3.1-1.1-3.1-3c0-1.9,1.2-3.1,3.2-3.1c1.8,0,3,1.2,3,3C53.8,10.9,52.3,11.9,50.7,11.9
				L50.7,11.9z M50.8,10.4c0.6,0,0.9-0.6,0.9-1.5c0-0.8-0.3-1.5-0.9-1.5c-0.7,0-0.9,0.8-0.9,1.5C49.8,9.8,50.1,10.4,50.8,10.4
				L50.8,10.4z"/>
			<path class="st0" d="M54.4,8c0-0.8,0-1.4,0-2h1.8l0.1,0.7h0c0.2-0.3,0.8-0.9,1.8-0.9c1.4,0,2.1,0.9,2.1,2.5v3.4H58V8.6
				c0-0.7-0.2-1.1-0.7-1.1c-0.4,0-0.6,0.3-0.7,0.5c0,0.1-0.1,0.3-0.1,0.4v3.3h-2.1V8z"/>
			<path class="st0" d="M62.1,5.4c-0.7,0-1.1-0.5-1.1-1c0-0.6,0.4-1,1.1-1s1.1,0.4,1.1,1C63.2,4.9,62.7,5.4,62.1,5.4L62.1,5.4z
				 M61,11.8V6h2.1v5.8H61z"/>
			<path class="st0" d="M68.5,11.7c-0.3,0.2-0.9,0.2-1.6,0.2c-1.9,0-3.2-1.1-3.2-3c0-1.7,1.1-3.1,3.4-3.1c0.4,0,0.9,0.1,1.3,0.2
				l-0.3,1.6c-0.2-0.1-0.5-0.1-0.9-0.1c-0.8,0-1.4,0.5-1.3,1.4c0,0.9,0.7,1.4,1.4,1.4c0.4,0,0.7,0,0.9-0.2L68.5,11.7z"/>
			<path class="st0" d="M69.2,3.9c0.5-0.1,1-0.2,1.7-0.2c0.9,0,1.7,0.2,2.1,0.7c0.4,0.4,0.6,0.9,0.6,1.6c0,0.7-0.2,1.2-0.6,1.6
				c-0.5,0.6-1.4,0.9-2.3,0.9c-0.4,0-0.7,0-1-0.1v3.4h-0.6V3.9z M69.7,7.9C70,8,70.4,8,70.8,8c1.4,0,2.3-0.7,2.3-2
				c0-1.3-0.9-1.8-2.2-1.8c-0.5,0-0.9,0-1.1,0.1V7.9z"/>
			<path class="st0" d="M77.8,10.4c0,0.4,0,0.9,0.1,1.3h-0.5L77.3,11h0c-0.3,0.4-0.9,0.9-1.8,0.9c-1.1,0-1.7-0.8-1.7-1.6
				c0-1.3,1.1-2.1,3.5-2.1V8.1c0-0.6-0.1-1.7-1.5-1.7c-0.5,0-1,0.1-1.4,0.4l-0.2-0.4C74.7,6.1,75.4,6,75.9,6c1.6,0,2,1.2,2,2.2V10.4
				z M77.3,8.7c-1.2,0-2.9,0.2-2.9,1.5c0,0.8,0.5,1.2,1.1,1.2c0.9,0,1.5-0.6,1.7-1.1c0-0.1,0.1-0.2,0.1-0.3V8.7z"/>
			<path class="st0" d="M78.9,6.1l1.5,3.7c0.2,0.4,0.3,0.9,0.4,1.2h0c0.1-0.3,0.3-0.8,0.4-1.3l1.4-3.7h0.6l-1.7,4.2
				c-0.7,1.8-1.2,2.8-1.9,3.5c-0.5,0.4-0.9,0.5-1,0.6l-0.2-0.5c0.3-0.1,0.7-0.3,1-0.6c0.3-0.3,0.7-0.8,0.9-1.4
				c0-0.1,0.1-0.2,0.1-0.2c0,0,0-0.1-0.1-0.2l-2.1-5.3H78.9z"/>
			<path class="st0" d="M83.9,7.5c0-0.5,0-0.9,0-1.4h0.5l0,1h0C84.8,6.5,85.3,6,86.2,6c0.8,0,1.4,0.5,1.6,1.2h0
				c0.2-0.3,0.4-0.6,0.6-0.8C88.9,6.1,89.2,6,89.8,6c0.6,0,1.9,0.3,1.9,2.5v3.4h-0.6V8.5c0-1.3-0.5-2-1.5-2c-0.7,0-1.3,0.5-1.5,1.1
				c0,0.2-0.1,0.4-0.1,0.6v3.6h-0.6V8.2c0-1-0.5-1.8-1.4-1.8c-0.8,0-1.4,0.6-1.6,1.3c0,0.2-0.1,0.4-0.1,0.6v3.5h-0.6V7.5z"/>
			<path class="st0" d="M93.2,8.9c0,1.8,1,2.5,2.2,2.5c0.8,0,1.3-0.2,1.6-0.3l0.1,0.4c-0.2,0.1-0.8,0.4-1.8,0.4
				c-1.6,0-2.7-1.2-2.7-2.9c0-1.9,1.1-3.1,2.6-3.1c1.9,0,2.2,1.8,2.2,2.6c0,0.2,0,0.2,0,0.3H93.2z M96.8,8.4c0-0.8-0.3-2-1.7-2
				c-1.3,0-1.8,1.1-1.9,2H96.8z"/>
			<path class="st0" d="M98.3,7.5c0-0.5,0-0.9,0-1.4h0.5l0,1h0c0.3-0.6,1-1.1,2-1.1c0.5,0,2,0.3,2,2.4v3.4h-0.6V8.4c0-1-0.4-2-1.6-2
				c-0.8,0-1.5,0.6-1.7,1.3c0,0.1-0.1,0.3-0.1,0.5v3.5h-0.6V7.5z"/>
			<path class="st0" d="M105,4.9v1.3h1.6v0.5H105v3.7c0,0.7,0.2,1.2,0.8,1.2c0.3,0,0.5,0,0.7-0.1l0.1,0.4c-0.2,0.1-0.4,0.1-0.8,0.1
				c-0.4,0-0.8-0.1-1-0.4c-0.3-0.3-0.4-0.8-0.4-1.4V6.6h-1V6.1h1v-1L105,4.9z"/>
			<path class="st0" d="M107.2,11c0.3,0.2,0.8,0.4,1.3,0.4c0.9,0,1.3-0.5,1.3-1.1c0-0.6-0.4-1-1.2-1.3c-0.9-0.4-1.4-0.9-1.4-1.6
				c0-0.8,0.7-1.5,1.8-1.5c0.5,0,1,0.2,1.3,0.4l-0.2,0.5c-0.2-0.1-0.6-0.3-1.1-0.3c-0.7,0-1.1,0.5-1.1,1c0,0.6,0.4,0.8,1.2,1.2
				c0.9,0.4,1.5,0.8,1.5,1.7c0,1-0.8,1.6-1.9,1.6c-0.5,0-1.1-0.2-1.4-0.4L107.2,11z"/>
		</g>
		<g>
			<path class="st0" d="M6.6,2.3h1.2h6.7V1.9c0-0.4-0.4-0.8-0.8-0.8H1.8C1.3,1.1,1,1.5,1,1.9v0.4c0,0,0.1,0,0.1,0H6.6z"/>
			<path class="st0" d="M5.5,5.3C5,5.3,4.8,5,5,4.5l0.4-1.3c0.1-0.2,0-0.4-0.2-0.4H1v3.4h7.5c0.4,0,0.7,0.4,0.5,0.8L8.5,8.6
				C8.4,9,7.9,9.4,7.4,9.4H4.1C3.6,9.4,3.4,9,3.6,8.6L4,7.3c0.1-0.2,0-0.4-0.2-0.4H1v3.4h2.8h1.2H12c0.5,0,0.7,0.4,0.5,0.8L12,12.6
				c-0.2,0.4-0.7,0.8-1.1,0.8H2.7c-0.5,0-0.7-0.4-0.6-0.8l0.5-1.3c0.1-0.2,0-0.4-0.2-0.4H1v2.8c0,0.4,0.4,0.8,0.8,0.8h11.9
				c0.4,0,0.8-0.4,0.8-0.8V5c-0.2,0.2-0.5,0.3-0.7,0.3H5.5z"/>
		</g>
	</g>
</g>
</svg>
